<mxfile host="Electron" modified="2024-07-07T11:21:15.203Z" agent="Mozilla/5.0 (Windows NT 10.0; Win64; x64) AppleWebKit/537.36 (KHTML, like Gecko) draw.io/24.5.1 Chrome/124.0.6367.207 Electron/30.0.6 Safari/537.36" etag="pV4ljGREoN2dSsb6ZUI4" version="24.5.1" type="device">
  <diagram id="6U7p5b831gvrruODpkpN" name="Page-1">
    <mxGraphModel dx="395" dy="712" grid="1" gridSize="10" guides="1" tooltips="1" connect="1" arrows="1" fold="1" page="0" pageScale="1" pageWidth="850" pageHeight="1100" math="0" shadow="0">
      <root>
        <mxCell id="0" />
        <mxCell id="1" parent="0" />
        <mxCell id="O5yxbaJrEStq2CBvZx3k-222" value="" style="shape=table;startSize=0;container=1;collapsible=0;childLayout=tableLayout;" parent="1" vertex="1">
          <mxGeometry x="960" y="80" width="590" height="40" as="geometry" />
        </mxCell>
        <mxCell id="O5yxbaJrEStq2CBvZx3k-223" value="" style="shape=tableRow;horizontal=0;startSize=0;swimlaneHead=0;swimlaneBody=0;strokeColor=inherit;top=0;left=0;bottom=0;right=0;collapsible=0;dropTarget=0;fillColor=none;points=[[0,0.5],[1,0.5]];portConstraint=eastwest;" parent="O5yxbaJrEStq2CBvZx3k-222" vertex="1">
          <mxGeometry width="590" height="40" as="geometry" />
        </mxCell>
        <mxCell id="O5yxbaJrEStq2CBvZx3k-224" value="&lt;u&gt;user_id&lt;/u&gt;" style="shape=partialRectangle;html=1;whiteSpace=wrap;connectable=0;strokeColor=inherit;overflow=hidden;fillColor=none;top=0;left=0;bottom=0;right=0;pointerEvents=1;" parent="O5yxbaJrEStq2CBvZx3k-223" vertex="1">
          <mxGeometry width="60" height="40" as="geometry">
            <mxRectangle width="60" height="40" as="alternateBounds" />
          </mxGeometry>
        </mxCell>
        <mxCell id="O5yxbaJrEStq2CBvZx3k-225" value="name" style="shape=partialRectangle;html=1;whiteSpace=wrap;connectable=0;strokeColor=inherit;overflow=hidden;fillColor=none;top=0;left=0;bottom=0;right=0;pointerEvents=1;" parent="O5yxbaJrEStq2CBvZx3k-223" vertex="1">
          <mxGeometry x="60" width="60" height="40" as="geometry">
            <mxRectangle width="60" height="40" as="alternateBounds" />
          </mxGeometry>
        </mxCell>
        <mxCell id="O5yxbaJrEStq2CBvZx3k-226" value="surname" style="shape=partialRectangle;html=1;whiteSpace=wrap;connectable=0;strokeColor=inherit;overflow=hidden;fillColor=none;top=0;left=0;bottom=0;right=0;pointerEvents=1;" parent="O5yxbaJrEStq2CBvZx3k-223" vertex="1">
          <mxGeometry x="120" width="60" height="40" as="geometry">
            <mxRectangle width="60" height="40" as="alternateBounds" />
          </mxGeometry>
        </mxCell>
        <mxCell id="O5yxbaJrEStq2CBvZx3k-227" value="pw_hash" style="shape=partialRectangle;html=1;whiteSpace=wrap;connectable=0;strokeColor=inherit;overflow=hidden;fillColor=none;top=0;left=0;bottom=0;right=0;pointerEvents=1;" parent="O5yxbaJrEStq2CBvZx3k-223" vertex="1">
          <mxGeometry x="180" width="60" height="40" as="geometry">
            <mxRectangle width="60" height="40" as="alternateBounds" />
          </mxGeometry>
        </mxCell>
        <mxCell id="O5yxbaJrEStq2CBvZx3k-228" value="movies_watched" style="shape=partialRectangle;html=1;whiteSpace=wrap;connectable=0;strokeColor=inherit;overflow=hidden;fillColor=none;top=0;left=0;bottom=0;right=0;pointerEvents=1;" parent="O5yxbaJrEStq2CBvZx3k-223" vertex="1">
          <mxGeometry x="240" width="120" height="40" as="geometry">
            <mxRectangle width="120" height="40" as="alternateBounds" />
          </mxGeometry>
        </mxCell>
        <mxCell id="O5yxbaJrEStq2CBvZx3k-229" value="birth_date" style="shape=partialRectangle;html=1;whiteSpace=wrap;connectable=0;strokeColor=inherit;overflow=hidden;fillColor=none;top=0;left=0;bottom=0;right=0;pointerEvents=1;" parent="O5yxbaJrEStq2CBvZx3k-223" vertex="1">
          <mxGeometry x="360" width="90" height="40" as="geometry">
            <mxRectangle width="90" height="40" as="alternateBounds" />
          </mxGeometry>
        </mxCell>
        <mxCell id="O5yxbaJrEStq2CBvZx3k-230" value="tickets" style="shape=partialRectangle;html=1;whiteSpace=wrap;connectable=0;strokeColor=inherit;overflow=hidden;fillColor=none;top=0;left=0;bottom=0;right=0;pointerEvents=1;" parent="O5yxbaJrEStq2CBvZx3k-223" vertex="1">
          <mxGeometry x="450" width="70" height="40" as="geometry">
            <mxRectangle width="70" height="40" as="alternateBounds" />
          </mxGeometry>
        </mxCell>
        <mxCell id="O5yxbaJrEStq2CBvZx3k-334" value="wallet_id" style="shape=partialRectangle;html=1;whiteSpace=wrap;connectable=0;strokeColor=inherit;overflow=hidden;fillColor=none;top=0;left=0;bottom=0;right=0;pointerEvents=1;" parent="O5yxbaJrEStq2CBvZx3k-223" vertex="1">
          <mxGeometry x="520" width="70" height="40" as="geometry">
            <mxRectangle width="70" height="40" as="alternateBounds" />
          </mxGeometry>
        </mxCell>
        <mxCell id="O5yxbaJrEStq2CBvZx3k-233" value="User" style="text;html=1;align=center;verticalAlign=middle;resizable=0;points=[];autosize=1;strokeColor=none;fillColor=none;" parent="1" vertex="1">
          <mxGeometry x="960" y="50" width="50" height="30" as="geometry" />
        </mxCell>
        <mxCell id="O5yxbaJrEStq2CBvZx3k-234" value="" style="shape=table;startSize=0;container=1;collapsible=0;childLayout=tableLayout;" parent="1" vertex="1">
          <mxGeometry x="960" y="160" width="480" height="40" as="geometry" />
        </mxCell>
        <mxCell id="O5yxbaJrEStq2CBvZx3k-235" value="" style="shape=tableRow;horizontal=0;startSize=0;swimlaneHead=0;swimlaneBody=0;strokeColor=inherit;top=0;left=0;bottom=0;right=0;collapsible=0;dropTarget=0;fillColor=none;points=[[0,0.5],[1,0.5]];portConstraint=eastwest;" parent="O5yxbaJrEStq2CBvZx3k-234" vertex="1">
          <mxGeometry width="480" height="40" as="geometry" />
        </mxCell>
        <mxCell id="O5yxbaJrEStq2CBvZx3k-236" value="&lt;u&gt;ticket_id&lt;/u&gt;" style="shape=partialRectangle;html=1;whiteSpace=wrap;connectable=0;strokeColor=inherit;overflow=hidden;fillColor=none;top=0;left=0;bottom=0;right=0;pointerEvents=1;" parent="O5yxbaJrEStq2CBvZx3k-235" vertex="1">
          <mxGeometry width="60" height="40" as="geometry">
            <mxRectangle width="60" height="40" as="alternateBounds" />
          </mxGeometry>
        </mxCell>
        <mxCell id="O5yxbaJrEStq2CBvZx3k-237" value="day" style="shape=partialRectangle;html=1;whiteSpace=wrap;connectable=0;strokeColor=inherit;overflow=hidden;fillColor=none;top=0;left=0;bottom=0;right=0;pointerEvents=1;" parent="O5yxbaJrEStq2CBvZx3k-235" vertex="1">
          <mxGeometry x="60" width="60" height="40" as="geometry">
            <mxRectangle width="60" height="40" as="alternateBounds" />
          </mxGeometry>
        </mxCell>
        <mxCell id="O5yxbaJrEStq2CBvZx3k-238" value="showtime" style="shape=partialRectangle;html=1;whiteSpace=wrap;connectable=0;strokeColor=inherit;overflow=hidden;fillColor=none;top=0;left=0;bottom=0;right=0;pointerEvents=1;" parent="O5yxbaJrEStq2CBvZx3k-235" vertex="1">
          <mxGeometry x="120" width="60" height="40" as="geometry">
            <mxRectangle width="60" height="40" as="alternateBounds" />
          </mxGeometry>
        </mxCell>
        <mxCell id="O5yxbaJrEStq2CBvZx3k-239" value="cinema_id" style="shape=partialRectangle;html=1;whiteSpace=wrap;connectable=0;strokeColor=inherit;overflow=hidden;fillColor=none;top=0;left=0;bottom=0;right=0;pointerEvents=1;" parent="O5yxbaJrEStq2CBvZx3k-235" vertex="1">
          <mxGeometry x="180" width="60" height="40" as="geometry">
            <mxRectangle width="60" height="40" as="alternateBounds" />
          </mxGeometry>
        </mxCell>
        <mxCell id="O5yxbaJrEStq2CBvZx3k-243" value="theater_id" style="shape=partialRectangle;html=1;whiteSpace=wrap;connectable=0;strokeColor=inherit;overflow=hidden;fillColor=none;top=0;left=0;bottom=0;right=0;pointerEvents=1;" parent="O5yxbaJrEStq2CBvZx3k-235" vertex="1">
          <mxGeometry x="240" width="60" height="40" as="geometry">
            <mxRectangle width="60" height="40" as="alternateBounds" />
          </mxGeometry>
        </mxCell>
        <mxCell id="O5yxbaJrEStq2CBvZx3k-240" value="seat_id" style="shape=partialRectangle;html=1;whiteSpace=wrap;connectable=0;strokeColor=inherit;overflow=hidden;fillColor=none;top=0;left=0;bottom=0;right=0;pointerEvents=1;" parent="O5yxbaJrEStq2CBvZx3k-235" vertex="1">
          <mxGeometry x="300" width="60" height="40" as="geometry">
            <mxRectangle width="60" height="40" as="alternateBounds" />
          </mxGeometry>
        </mxCell>
        <mxCell id="O5yxbaJrEStq2CBvZx3k-241" value="movie_id" style="shape=partialRectangle;html=1;whiteSpace=wrap;connectable=0;strokeColor=inherit;overflow=hidden;fillColor=none;top=0;left=0;bottom=0;right=0;pointerEvents=1;" parent="O5yxbaJrEStq2CBvZx3k-235" vertex="1">
          <mxGeometry x="360" width="60" height="40" as="geometry">
            <mxRectangle width="60" height="40" as="alternateBounds" />
          </mxGeometry>
        </mxCell>
        <mxCell id="O5yxbaJrEStq2CBvZx3k-361" value="user_id" style="shape=partialRectangle;html=1;whiteSpace=wrap;connectable=0;strokeColor=inherit;overflow=hidden;fillColor=none;top=0;left=0;bottom=0;right=0;pointerEvents=1;" parent="O5yxbaJrEStq2CBvZx3k-235" vertex="1">
          <mxGeometry x="420" width="60" height="40" as="geometry">
            <mxRectangle width="60" height="40" as="alternateBounds" />
          </mxGeometry>
        </mxCell>
        <mxCell id="O5yxbaJrEStq2CBvZx3k-242" value="Ticket" style="text;html=1;align=center;verticalAlign=middle;resizable=0;points=[];autosize=1;strokeColor=none;fillColor=none;" parent="1" vertex="1">
          <mxGeometry x="960" y="130" width="60" height="30" as="geometry" />
        </mxCell>
        <mxCell id="O5yxbaJrEStq2CBvZx3k-244" value="" style="shape=table;startSize=0;container=1;collapsible=0;childLayout=tableLayout;" parent="1" vertex="1">
          <mxGeometry x="960" y="240" width="360" height="40" as="geometry" />
        </mxCell>
        <mxCell id="O5yxbaJrEStq2CBvZx3k-245" value="" style="shape=tableRow;horizontal=0;startSize=0;swimlaneHead=0;swimlaneBody=0;strokeColor=inherit;top=0;left=0;bottom=0;right=0;collapsible=0;dropTarget=0;fillColor=none;points=[[0,0.5],[1,0.5]];portConstraint=eastwest;" parent="O5yxbaJrEStq2CBvZx3k-244" vertex="1">
          <mxGeometry width="360" height="40" as="geometry" />
        </mxCell>
        <mxCell id="O5yxbaJrEStq2CBvZx3k-246" value="&lt;u&gt;cinema_id&lt;/u&gt;" style="shape=partialRectangle;html=1;whiteSpace=wrap;connectable=0;strokeColor=inherit;overflow=hidden;fillColor=none;top=0;left=0;bottom=0;right=0;pointerEvents=1;" parent="O5yxbaJrEStq2CBvZx3k-245" vertex="1">
          <mxGeometry width="60" height="40" as="geometry">
            <mxRectangle width="60" height="40" as="alternateBounds" />
          </mxGeometry>
        </mxCell>
        <mxCell id="O5yxbaJrEStq2CBvZx3k-247" value="name" style="shape=partialRectangle;html=1;whiteSpace=wrap;connectable=0;strokeColor=inherit;overflow=hidden;fillColor=none;top=0;left=0;bottom=0;right=0;pointerEvents=1;" parent="O5yxbaJrEStq2CBvZx3k-245" vertex="1">
          <mxGeometry x="60" width="60" height="40" as="geometry">
            <mxRectangle width="60" height="40" as="alternateBounds" />
          </mxGeometry>
        </mxCell>
        <mxCell id="O5yxbaJrEStq2CBvZx3k-248" value="location" style="shape=partialRectangle;html=1;whiteSpace=wrap;connectable=0;strokeColor=inherit;overflow=hidden;fillColor=none;top=0;left=0;bottom=0;right=0;pointerEvents=1;" parent="O5yxbaJrEStq2CBvZx3k-245" vertex="1">
          <mxGeometry x="120" width="60" height="40" as="geometry">
            <mxRectangle width="60" height="40" as="alternateBounds" />
          </mxGeometry>
        </mxCell>
        <mxCell id="O5yxbaJrEStq2CBvZx3k-249" value="city" style="shape=partialRectangle;html=1;whiteSpace=wrap;connectable=0;strokeColor=inherit;overflow=hidden;fillColor=none;top=0;left=0;bottom=0;right=0;pointerEvents=1;" parent="O5yxbaJrEStq2CBvZx3k-245" vertex="1">
          <mxGeometry x="180" width="60" height="40" as="geometry">
            <mxRectangle width="60" height="40" as="alternateBounds" />
          </mxGeometry>
        </mxCell>
        <mxCell id="O5yxbaJrEStq2CBvZx3k-250" value="address" style="shape=partialRectangle;html=1;whiteSpace=wrap;connectable=0;strokeColor=inherit;overflow=hidden;fillColor=none;top=0;left=0;bottom=0;right=0;pointerEvents=1;" parent="O5yxbaJrEStq2CBvZx3k-245" vertex="1">
          <mxGeometry x="240" width="60" height="40" as="geometry">
            <mxRectangle width="60" height="40" as="alternateBounds" />
          </mxGeometry>
        </mxCell>
        <mxCell id="O5yxbaJrEStq2CBvZx3k-251" value="theaters" style="shape=partialRectangle;html=1;whiteSpace=wrap;connectable=0;strokeColor=inherit;overflow=hidden;fillColor=none;top=0;left=0;bottom=0;right=0;pointerEvents=1;" parent="O5yxbaJrEStq2CBvZx3k-245" vertex="1">
          <mxGeometry x="300" width="60" height="40" as="geometry">
            <mxRectangle width="60" height="40" as="alternateBounds" />
          </mxGeometry>
        </mxCell>
        <mxCell id="O5yxbaJrEStq2CBvZx3k-252" value="Cinema" style="text;html=1;align=center;verticalAlign=middle;resizable=0;points=[];autosize=1;strokeColor=none;fillColor=none;" parent="1" vertex="1">
          <mxGeometry x="955" y="210" width="60" height="30" as="geometry" />
        </mxCell>
        <mxCell id="O5yxbaJrEStq2CBvZx3k-253" value="Theatre" style="text;html=1;align=center;verticalAlign=middle;resizable=0;points=[];autosize=1;strokeColor=none;fillColor=none;" parent="1" vertex="1">
          <mxGeometry x="960" y="290" width="60" height="30" as="geometry" />
        </mxCell>
        <mxCell id="O5yxbaJrEStq2CBvZx3k-254" value="" style="shape=table;startSize=0;container=1;collapsible=0;childLayout=tableLayout;" parent="1" vertex="1">
          <mxGeometry x="960" y="320" width="270" height="40" as="geometry" />
        </mxCell>
        <mxCell id="O5yxbaJrEStq2CBvZx3k-255" value="" style="shape=tableRow;horizontal=0;startSize=0;swimlaneHead=0;swimlaneBody=0;strokeColor=inherit;top=0;left=0;bottom=0;right=0;collapsible=0;dropTarget=0;fillColor=none;points=[[0,0.5],[1,0.5]];portConstraint=eastwest;" parent="O5yxbaJrEStq2CBvZx3k-254" vertex="1">
          <mxGeometry width="270" height="40" as="geometry" />
        </mxCell>
        <mxCell id="O5yxbaJrEStq2CBvZx3k-256" value="&lt;u&gt;theater_id&lt;/u&gt;" style="shape=partialRectangle;html=1;whiteSpace=wrap;connectable=0;strokeColor=inherit;overflow=hidden;fillColor=none;top=0;left=0;bottom=0;right=0;pointerEvents=1;" parent="O5yxbaJrEStq2CBvZx3k-255" vertex="1">
          <mxGeometry width="60" height="40" as="geometry">
            <mxRectangle width="60" height="40" as="alternateBounds" />
          </mxGeometry>
        </mxCell>
        <mxCell id="O5yxbaJrEStq2CBvZx3k-257" value="num_of_seats" style="shape=partialRectangle;html=1;whiteSpace=wrap;connectable=0;strokeColor=inherit;overflow=hidden;fillColor=none;top=0;left=0;bottom=0;right=0;pointerEvents=1;" parent="O5yxbaJrEStq2CBvZx3k-255" vertex="1">
          <mxGeometry x="60" width="90" height="40" as="geometry">
            <mxRectangle width="90" height="40" as="alternateBounds" />
          </mxGeometry>
        </mxCell>
        <mxCell id="O5yxbaJrEStq2CBvZx3k-258" value="seats" style="shape=partialRectangle;html=1;whiteSpace=wrap;connectable=0;strokeColor=inherit;overflow=hidden;fillColor=none;top=0;left=0;bottom=0;right=0;pointerEvents=1;" parent="O5yxbaJrEStq2CBvZx3k-255" vertex="1">
          <mxGeometry x="150" width="50" height="40" as="geometry">
            <mxRectangle width="50" height="40" as="alternateBounds" />
          </mxGeometry>
        </mxCell>
        <mxCell id="O5yxbaJrEStq2CBvZx3k-259" value="cinema_id" style="shape=partialRectangle;html=1;whiteSpace=wrap;connectable=0;strokeColor=inherit;overflow=hidden;fillColor=none;top=0;left=0;bottom=0;right=0;pointerEvents=1;" parent="O5yxbaJrEStq2CBvZx3k-255" vertex="1">
          <mxGeometry x="200" width="70" height="40" as="geometry">
            <mxRectangle width="70" height="40" as="alternateBounds" />
          </mxGeometry>
        </mxCell>
        <mxCell id="O5yxbaJrEStq2CBvZx3k-260" value="Seat" style="text;html=1;align=center;verticalAlign=middle;resizable=0;points=[];autosize=1;strokeColor=none;fillColor=none;" parent="1" vertex="1">
          <mxGeometry x="960" y="368" width="50" height="30" as="geometry" />
        </mxCell>
        <mxCell id="O5yxbaJrEStq2CBvZx3k-261" value="" style="shape=table;startSize=0;container=1;collapsible=0;childLayout=tableLayout;" parent="1" vertex="1">
          <mxGeometry x="960" y="398" width="250" height="40" as="geometry" />
        </mxCell>
        <mxCell id="O5yxbaJrEStq2CBvZx3k-262" value="" style="shape=tableRow;horizontal=0;startSize=0;swimlaneHead=0;swimlaneBody=0;strokeColor=inherit;top=0;left=0;bottom=0;right=0;collapsible=0;dropTarget=0;fillColor=none;points=[[0,0.5],[1,0.5]];portConstraint=eastwest;" parent="O5yxbaJrEStq2CBvZx3k-261" vertex="1">
          <mxGeometry width="250" height="40" as="geometry" />
        </mxCell>
        <mxCell id="O5yxbaJrEStq2CBvZx3k-263" value="seat_id" style="shape=partialRectangle;html=1;whiteSpace=wrap;connectable=0;strokeColor=inherit;overflow=hidden;fillColor=none;top=0;left=0;bottom=0;right=0;pointerEvents=1;" parent="O5yxbaJrEStq2CBvZx3k-262" vertex="1">
          <mxGeometry width="60" height="40" as="geometry">
            <mxRectangle width="60" height="40" as="alternateBounds" />
          </mxGeometry>
        </mxCell>
        <mxCell id="O5yxbaJrEStq2CBvZx3k-264" value="is_empty" style="shape=partialRectangle;html=1;whiteSpace=wrap;connectable=0;strokeColor=inherit;overflow=hidden;fillColor=none;top=0;left=0;bottom=0;right=0;pointerEvents=1;" parent="O5yxbaJrEStq2CBvZx3k-262" vertex="1">
          <mxGeometry x="60" width="60" height="40" as="geometry">
            <mxRectangle width="60" height="40" as="alternateBounds" />
          </mxGeometry>
        </mxCell>
        <mxCell id="O5yxbaJrEStq2CBvZx3k-355" value="theater_id" style="shape=partialRectangle;html=1;whiteSpace=wrap;connectable=0;strokeColor=inherit;overflow=hidden;fillColor=none;top=0;left=0;bottom=0;right=0;pointerEvents=1;" parent="O5yxbaJrEStq2CBvZx3k-262" vertex="1">
          <mxGeometry x="120" width="60" height="40" as="geometry">
            <mxRectangle width="60" height="40" as="alternateBounds" />
          </mxGeometry>
        </mxCell>
        <mxCell id="koNiK_NTz06NFWScvjMT-1" value="cinema_id" style="shape=partialRectangle;html=1;whiteSpace=wrap;connectable=0;strokeColor=inherit;overflow=hidden;fillColor=none;top=0;left=0;bottom=0;right=0;pointerEvents=1;" vertex="1" parent="O5yxbaJrEStq2CBvZx3k-262">
          <mxGeometry x="180" width="70" height="40" as="geometry">
            <mxRectangle width="70" height="40" as="alternateBounds" />
          </mxGeometry>
        </mxCell>
        <mxCell id="O5yxbaJrEStq2CBvZx3k-265" value="" style="shape=table;startSize=0;container=1;collapsible=0;childLayout=tableLayout;" parent="1" vertex="1">
          <mxGeometry x="960" y="480" width="560.0000000000002" height="40" as="geometry" />
        </mxCell>
        <mxCell id="O5yxbaJrEStq2CBvZx3k-266" value="" style="shape=tableRow;horizontal=0;startSize=0;swimlaneHead=0;swimlaneBody=0;strokeColor=inherit;top=0;left=0;bottom=0;right=0;collapsible=0;dropTarget=0;fillColor=none;points=[[0,0.5],[1,0.5]];portConstraint=eastwest;" parent="O5yxbaJrEStq2CBvZx3k-265" vertex="1">
          <mxGeometry width="560.0000000000002" height="40" as="geometry" />
        </mxCell>
        <mxCell id="O5yxbaJrEStq2CBvZx3k-267" value="f_city" style="shape=partialRectangle;html=1;whiteSpace=wrap;connectable=0;strokeColor=inherit;overflow=hidden;fillColor=none;top=0;left=0;bottom=0;right=0;pointerEvents=1;" parent="O5yxbaJrEStq2CBvZx3k-266" vertex="1">
          <mxGeometry width="60" height="40" as="geometry">
            <mxRectangle width="60" height="40" as="alternateBounds" />
          </mxGeometry>
        </mxCell>
        <mxCell id="O5yxbaJrEStq2CBvZx3k-366" value="f_cinema" style="shape=partialRectangle;html=1;whiteSpace=wrap;connectable=0;strokeColor=inherit;overflow=hidden;fillColor=none;top=0;left=0;bottom=0;right=0;pointerEvents=1;" parent="O5yxbaJrEStq2CBvZx3k-266" vertex="1">
          <mxGeometry x="60" width="60" height="40" as="geometry">
            <mxRectangle width="60" height="40" as="alternateBounds" />
          </mxGeometry>
        </mxCell>
        <mxCell id="O5yxbaJrEStq2CBvZx3k-367" value="f_day" style="shape=partialRectangle;html=1;whiteSpace=wrap;connectable=0;strokeColor=inherit;overflow=hidden;fillColor=none;top=0;left=0;bottom=0;right=0;pointerEvents=1;" parent="O5yxbaJrEStq2CBvZx3k-266" vertex="1">
          <mxGeometry x="120" width="60" height="40" as="geometry">
            <mxRectangle width="60" height="40" as="alternateBounds" />
          </mxGeometry>
        </mxCell>
        <mxCell id="O5yxbaJrEStq2CBvZx3k-368" value="f_rating" style="shape=partialRectangle;html=1;whiteSpace=wrap;connectable=0;strokeColor=inherit;overflow=hidden;fillColor=none;top=0;left=0;bottom=0;right=0;pointerEvents=1;" parent="O5yxbaJrEStq2CBvZx3k-266" vertex="1">
          <mxGeometry x="180" width="60" height="40" as="geometry">
            <mxRectangle width="60" height="40" as="alternateBounds" />
          </mxGeometry>
        </mxCell>
        <mxCell id="O5yxbaJrEStq2CBvZx3k-369" value="f_is_released" style="shape=partialRectangle;html=1;whiteSpace=wrap;connectable=0;strokeColor=inherit;overflow=hidden;fillColor=none;top=0;left=0;bottom=0;right=0;pointerEvents=1;" parent="O5yxbaJrEStq2CBvZx3k-266" vertex="1">
          <mxGeometry x="240" width="80" height="40" as="geometry">
            <mxRectangle width="80" height="40" as="alternateBounds" />
          </mxGeometry>
        </mxCell>
        <mxCell id="O5yxbaJrEStq2CBvZx3k-370" value="f_genre" style="shape=partialRectangle;html=1;whiteSpace=wrap;connectable=0;strokeColor=inherit;overflow=hidden;fillColor=none;top=0;left=0;bottom=0;right=0;pointerEvents=1;" parent="O5yxbaJrEStq2CBvZx3k-266" vertex="1">
          <mxGeometry x="320" width="50" height="40" as="geometry">
            <mxRectangle width="50" height="40" as="alternateBounds" />
          </mxGeometry>
        </mxCell>
        <mxCell id="O5yxbaJrEStq2CBvZx3k-373" value="user_id" style="shape=partialRectangle;html=1;whiteSpace=wrap;connectable=0;strokeColor=inherit;overflow=hidden;fillColor=none;top=0;left=0;bottom=0;right=0;pointerEvents=1;" parent="O5yxbaJrEStq2CBvZx3k-266" vertex="1">
          <mxGeometry x="370" width="90" height="40" as="geometry">
            <mxRectangle width="90" height="40" as="alternateBounds" />
          </mxGeometry>
        </mxCell>
        <mxCell id="O5yxbaJrEStq2CBvZx3k-374" value="cinema_id" style="shape=partialRectangle;html=1;whiteSpace=wrap;connectable=0;strokeColor=inherit;overflow=hidden;fillColor=none;top=0;left=0;bottom=0;right=0;pointerEvents=1;" parent="O5yxbaJrEStq2CBvZx3k-266" vertex="1">
          <mxGeometry x="460" width="100" height="40" as="geometry">
            <mxRectangle width="100" height="40" as="alternateBounds" />
          </mxGeometry>
        </mxCell>
        <mxCell id="O5yxbaJrEStq2CBvZx3k-277" value="Filter" style="text;html=1;align=center;verticalAlign=middle;resizable=0;points=[];autosize=1;strokeColor=none;fillColor=none;" parent="1" vertex="1">
          <mxGeometry x="960" y="450" width="50" height="30" as="geometry" />
        </mxCell>
        <mxCell id="O5yxbaJrEStq2CBvZx3k-278" value="Actor_Actress" style="text;html=1;align=center;verticalAlign=middle;resizable=0;points=[];autosize=1;strokeColor=none;fillColor=none;" parent="1" vertex="1">
          <mxGeometry x="960" y="530" width="100" height="30" as="geometry" />
        </mxCell>
        <mxCell id="O5yxbaJrEStq2CBvZx3k-279" value="" style="shape=table;startSize=0;container=1;collapsible=0;childLayout=tableLayout;" parent="1" vertex="1">
          <mxGeometry x="960" y="560" width="180" height="40" as="geometry" />
        </mxCell>
        <mxCell id="O5yxbaJrEStq2CBvZx3k-280" value="" style="shape=tableRow;horizontal=0;startSize=0;swimlaneHead=0;swimlaneBody=0;strokeColor=inherit;top=0;left=0;bottom=0;right=0;collapsible=0;dropTarget=0;fillColor=none;points=[[0,0.5],[1,0.5]];portConstraint=eastwest;" parent="O5yxbaJrEStq2CBvZx3k-279" vertex="1">
          <mxGeometry width="180" height="40" as="geometry" />
        </mxCell>
        <mxCell id="O5yxbaJrEStq2CBvZx3k-281" value="name" style="shape=partialRectangle;html=1;whiteSpace=wrap;connectable=0;strokeColor=inherit;overflow=hidden;fillColor=none;top=0;left=0;bottom=0;right=0;pointerEvents=1;" parent="O5yxbaJrEStq2CBvZx3k-280" vertex="1">
          <mxGeometry width="60" height="40" as="geometry">
            <mxRectangle width="60" height="40" as="alternateBounds" />
          </mxGeometry>
        </mxCell>
        <mxCell id="O5yxbaJrEStq2CBvZx3k-282" value="surname" style="shape=partialRectangle;html=1;whiteSpace=wrap;connectable=0;strokeColor=inherit;overflow=hidden;fillColor=none;top=0;left=0;bottom=0;right=0;pointerEvents=1;" parent="O5yxbaJrEStq2CBvZx3k-280" vertex="1">
          <mxGeometry x="60" width="60" height="40" as="geometry">
            <mxRectangle width="60" height="40" as="alternateBounds" />
          </mxGeometry>
        </mxCell>
        <mxCell id="O5yxbaJrEStq2CBvZx3k-283" value="movie_id" style="shape=partialRectangle;html=1;whiteSpace=wrap;connectable=0;strokeColor=inherit;overflow=hidden;fillColor=none;top=0;left=0;bottom=0;right=0;pointerEvents=1;" parent="O5yxbaJrEStq2CBvZx3k-280" vertex="1">
          <mxGeometry x="120" width="60" height="40" as="geometry">
            <mxRectangle width="60" height="40" as="alternateBounds" />
          </mxGeometry>
        </mxCell>
        <mxCell id="O5yxbaJrEStq2CBvZx3k-287" value="Wallet" style="text;html=1;align=center;verticalAlign=middle;resizable=0;points=[];autosize=1;strokeColor=none;fillColor=none;" parent="1" vertex="1">
          <mxGeometry x="960" y="610" width="60" height="30" as="geometry" />
        </mxCell>
        <mxCell id="O5yxbaJrEStq2CBvZx3k-288" value="" style="shape=table;startSize=0;container=1;collapsible=0;childLayout=tableLayout;" parent="1" vertex="1">
          <mxGeometry x="960" y="640" width="380" height="40" as="geometry" />
        </mxCell>
        <mxCell id="O5yxbaJrEStq2CBvZx3k-289" value="" style="shape=tableRow;horizontal=0;startSize=0;swimlaneHead=0;swimlaneBody=0;strokeColor=inherit;top=0;left=0;bottom=0;right=0;collapsible=0;dropTarget=0;fillColor=none;points=[[0,0.5],[1,0.5]];portConstraint=eastwest;" parent="O5yxbaJrEStq2CBvZx3k-288" vertex="1">
          <mxGeometry width="380" height="40" as="geometry" />
        </mxCell>
        <mxCell id="O5yxbaJrEStq2CBvZx3k-290" value="tickets" style="shape=partialRectangle;html=1;whiteSpace=wrap;connectable=0;strokeColor=inherit;overflow=hidden;fillColor=none;top=0;left=0;bottom=0;right=0;pointerEvents=1;" parent="O5yxbaJrEStq2CBvZx3k-289" vertex="1">
          <mxGeometry width="60" height="40" as="geometry">
            <mxRectangle width="60" height="40" as="alternateBounds" />
          </mxGeometry>
        </mxCell>
        <mxCell id="O5yxbaJrEStq2CBvZx3k-291" value="balance" style="shape=partialRectangle;html=1;whiteSpace=wrap;connectable=0;strokeColor=inherit;overflow=hidden;fillColor=none;top=0;left=0;bottom=0;right=0;pointerEvents=1;" parent="O5yxbaJrEStq2CBvZx3k-289" vertex="1">
          <mxGeometry x="60" width="60" height="40" as="geometry">
            <mxRectangle width="60" height="40" as="alternateBounds" />
          </mxGeometry>
        </mxCell>
        <mxCell id="O5yxbaJrEStq2CBvZx3k-292" value="coupons" style="shape=partialRectangle;html=1;whiteSpace=wrap;connectable=0;strokeColor=inherit;overflow=hidden;fillColor=none;top=0;left=0;bottom=0;right=0;pointerEvents=1;" parent="O5yxbaJrEStq2CBvZx3k-289" vertex="1">
          <mxGeometry x="120" width="60" height="40" as="geometry">
            <mxRectangle width="60" height="40" as="alternateBounds" />
          </mxGeometry>
        </mxCell>
        <mxCell id="O5yxbaJrEStq2CBvZx3k-293" value="user_id" style="shape=partialRectangle;html=1;whiteSpace=wrap;connectable=0;strokeColor=inherit;overflow=hidden;fillColor=none;top=0;left=0;bottom=0;right=0;pointerEvents=1;" parent="O5yxbaJrEStq2CBvZx3k-289" vertex="1">
          <mxGeometry x="180" width="60" height="40" as="geometry">
            <mxRectangle width="60" height="40" as="alternateBounds" />
          </mxGeometry>
        </mxCell>
        <mxCell id="O5yxbaJrEStq2CBvZx3k-318" value="&lt;u&gt;wallet_id&lt;/u&gt;" style="shape=partialRectangle;html=1;whiteSpace=wrap;connectable=0;strokeColor=inherit;overflow=hidden;fillColor=none;top=0;left=0;bottom=0;right=0;pointerEvents=1;" parent="O5yxbaJrEStq2CBvZx3k-289" vertex="1">
          <mxGeometry x="240" width="60" height="40" as="geometry">
            <mxRectangle width="60" height="40" as="alternateBounds" />
          </mxGeometry>
        </mxCell>
        <mxCell id="O5yxbaJrEStq2CBvZx3k-319" value="credit_cards" style="shape=partialRectangle;html=1;whiteSpace=wrap;connectable=0;strokeColor=inherit;overflow=hidden;fillColor=none;top=0;left=0;bottom=0;right=0;pointerEvents=1;" parent="O5yxbaJrEStq2CBvZx3k-289" vertex="1">
          <mxGeometry x="300" width="80" height="40" as="geometry">
            <mxRectangle width="80" height="40" as="alternateBounds" />
          </mxGeometry>
        </mxCell>
        <mxCell id="O5yxbaJrEStq2CBvZx3k-295" value="Credit Card" style="text;html=1;align=center;verticalAlign=middle;resizable=0;points=[];autosize=1;strokeColor=none;fillColor=none;" parent="1" vertex="1">
          <mxGeometry x="965" y="690" width="80" height="30" as="geometry" />
        </mxCell>
        <mxCell id="O5yxbaJrEStq2CBvZx3k-296" value="" style="shape=table;startSize=0;container=1;collapsible=0;childLayout=tableLayout;" parent="1" vertex="1">
          <mxGeometry x="960" y="720" width="380" height="40" as="geometry" />
        </mxCell>
        <mxCell id="O5yxbaJrEStq2CBvZx3k-297" value="" style="shape=tableRow;horizontal=0;startSize=0;swimlaneHead=0;swimlaneBody=0;strokeColor=inherit;top=0;left=0;bottom=0;right=0;collapsible=0;dropTarget=0;fillColor=none;points=[[0,0.5],[1,0.5]];portConstraint=eastwest;" parent="O5yxbaJrEStq2CBvZx3k-296" vertex="1">
          <mxGeometry width="380" height="40" as="geometry" />
        </mxCell>
        <mxCell id="O5yxbaJrEStq2CBvZx3k-298" value="card_number" style="shape=partialRectangle;html=1;whiteSpace=wrap;connectable=0;strokeColor=inherit;overflow=hidden;fillColor=none;top=0;left=0;bottom=0;right=0;pointerEvents=1;" parent="O5yxbaJrEStq2CBvZx3k-297" vertex="1">
          <mxGeometry width="80" height="40" as="geometry">
            <mxRectangle width="80" height="40" as="alternateBounds" />
          </mxGeometry>
        </mxCell>
        <mxCell id="O5yxbaJrEStq2CBvZx3k-299" value="cvv" style="shape=partialRectangle;html=1;whiteSpace=wrap;connectable=0;strokeColor=inherit;overflow=hidden;fillColor=none;top=0;left=0;bottom=0;right=0;pointerEvents=1;" parent="O5yxbaJrEStq2CBvZx3k-297" vertex="1">
          <mxGeometry x="80" width="40" height="40" as="geometry">
            <mxRectangle width="40" height="40" as="alternateBounds" />
          </mxGeometry>
        </mxCell>
        <mxCell id="O5yxbaJrEStq2CBvZx3k-300" value="expiration_year" style="shape=partialRectangle;html=1;whiteSpace=wrap;connectable=0;strokeColor=inherit;overflow=hidden;fillColor=none;top=0;left=0;bottom=0;right=0;pointerEvents=1;" parent="O5yxbaJrEStq2CBvZx3k-297" vertex="1">
          <mxGeometry x="120" width="90" height="40" as="geometry">
            <mxRectangle width="90" height="40" as="alternateBounds" />
          </mxGeometry>
        </mxCell>
        <mxCell id="O5yxbaJrEStq2CBvZx3k-301" value="expiration_month" style="shape=partialRectangle;html=1;whiteSpace=wrap;connectable=0;strokeColor=inherit;overflow=hidden;fillColor=none;top=0;left=0;bottom=0;right=0;pointerEvents=1;" parent="O5yxbaJrEStq2CBvZx3k-297" vertex="1">
          <mxGeometry x="210" width="100" height="40" as="geometry">
            <mxRectangle width="100" height="40" as="alternateBounds" />
          </mxGeometry>
        </mxCell>
        <mxCell id="O5yxbaJrEStq2CBvZx3k-302" value="wallet_id" style="shape=partialRectangle;html=1;whiteSpace=wrap;connectable=0;strokeColor=inherit;overflow=hidden;fillColor=none;top=0;left=0;bottom=0;right=0;pointerEvents=1;" parent="O5yxbaJrEStq2CBvZx3k-297" vertex="1">
          <mxGeometry x="310" width="70" height="40" as="geometry">
            <mxRectangle width="70" height="40" as="alternateBounds" />
          </mxGeometry>
        </mxCell>
        <mxCell id="O5yxbaJrEStq2CBvZx3k-303" value="Movie" style="text;html=1;align=center;verticalAlign=middle;resizable=0;points=[];autosize=1;strokeColor=none;fillColor=none;" parent="1" vertex="1">
          <mxGeometry x="960" y="770" width="60" height="30" as="geometry" />
        </mxCell>
        <mxCell id="O5yxbaJrEStq2CBvZx3k-304" value="" style="shape=table;startSize=0;container=1;collapsible=0;childLayout=tableLayout;" parent="1" vertex="1">
          <mxGeometry x="960" y="800" width="630" height="40" as="geometry" />
        </mxCell>
        <mxCell id="O5yxbaJrEStq2CBvZx3k-305" value="" style="shape=tableRow;horizontal=0;startSize=0;swimlaneHead=0;swimlaneBody=0;strokeColor=inherit;top=0;left=0;bottom=0;right=0;collapsible=0;dropTarget=0;fillColor=none;points=[[0,0.5],[1,0.5]];portConstraint=eastwest;" parent="O5yxbaJrEStq2CBvZx3k-304" vertex="1">
          <mxGeometry width="630" height="40" as="geometry" />
        </mxCell>
        <mxCell id="O5yxbaJrEStq2CBvZx3k-306" value="&lt;u&gt;movie_id&lt;/u&gt;" style="shape=partialRectangle;html=1;whiteSpace=wrap;connectable=0;strokeColor=inherit;overflow=hidden;fillColor=none;top=0;left=0;bottom=0;right=0;pointerEvents=1;" parent="O5yxbaJrEStq2CBvZx3k-305" vertex="1">
          <mxGeometry width="60" height="40" as="geometry">
            <mxRectangle width="60" height="40" as="alternateBounds" />
          </mxGeometry>
        </mxCell>
        <mxCell id="O5yxbaJrEStq2CBvZx3k-307" value="rate" style="shape=partialRectangle;html=1;whiteSpace=wrap;connectable=0;strokeColor=inherit;overflow=hidden;fillColor=none;top=0;left=0;bottom=0;right=0;pointerEvents=1;" parent="O5yxbaJrEStq2CBvZx3k-305" vertex="1">
          <mxGeometry x="60" width="60" height="40" as="geometry">
            <mxRectangle width="60" height="40" as="alternateBounds" />
          </mxGeometry>
        </mxCell>
        <mxCell id="O5yxbaJrEStq2CBvZx3k-308" value="duration" style="shape=partialRectangle;html=1;whiteSpace=wrap;connectable=0;strokeColor=inherit;overflow=hidden;fillColor=none;top=0;left=0;bottom=0;right=0;pointerEvents=1;" parent="O5yxbaJrEStq2CBvZx3k-305" vertex="1">
          <mxGeometry x="120" width="60" height="40" as="geometry">
            <mxRectangle width="60" height="40" as="alternateBounds" />
          </mxGeometry>
        </mxCell>
        <mxCell id="O5yxbaJrEStq2CBvZx3k-309" value="genre" style="shape=partialRectangle;html=1;whiteSpace=wrap;connectable=0;strokeColor=inherit;overflow=hidden;fillColor=none;top=0;left=0;bottom=0;right=0;pointerEvents=1;" parent="O5yxbaJrEStq2CBvZx3k-305" vertex="1">
          <mxGeometry x="180" width="60" height="40" as="geometry">
            <mxRectangle width="60" height="40" as="alternateBounds" />
          </mxGeometry>
        </mxCell>
        <mxCell id="O5yxbaJrEStq2CBvZx3k-310" value="name" style="shape=partialRectangle;html=1;whiteSpace=wrap;connectable=0;strokeColor=inherit;overflow=hidden;fillColor=none;top=0;left=0;bottom=0;right=0;pointerEvents=1;" parent="O5yxbaJrEStq2CBvZx3k-305" vertex="1">
          <mxGeometry x="240" width="60" height="40" as="geometry">
            <mxRectangle width="60" height="40" as="alternateBounds" />
          </mxGeometry>
        </mxCell>
        <mxCell id="O5yxbaJrEStq2CBvZx3k-311" value="imdb_rate" style="shape=partialRectangle;html=1;whiteSpace=wrap;connectable=0;strokeColor=inherit;overflow=hidden;fillColor=none;top=0;left=0;bottom=0;right=0;pointerEvents=1;" parent="O5yxbaJrEStq2CBvZx3k-305" vertex="1">
          <mxGeometry x="300" width="60" height="40" as="geometry">
            <mxRectangle width="60" height="40" as="alternateBounds" />
          </mxGeometry>
        </mxCell>
        <mxCell id="O5yxbaJrEStq2CBvZx3k-312" value="description" style="shape=partialRectangle;html=1;whiteSpace=wrap;connectable=0;strokeColor=inherit;overflow=hidden;fillColor=none;top=0;left=0;bottom=0;right=0;pointerEvents=1;" parent="O5yxbaJrEStq2CBvZx3k-305" vertex="1">
          <mxGeometry x="360" width="70" height="40" as="geometry">
            <mxRectangle width="70" height="40" as="alternateBounds" />
          </mxGeometry>
        </mxCell>
        <mxCell id="O5yxbaJrEStq2CBvZx3k-314" value="show_times" style="shape=partialRectangle;html=1;whiteSpace=wrap;connectable=0;strokeColor=inherit;overflow=hidden;fillColor=none;top=0;left=0;bottom=0;right=0;pointerEvents=1;" parent="O5yxbaJrEStq2CBvZx3k-305" vertex="1">
          <mxGeometry x="430" width="70" height="40" as="geometry">
            <mxRectangle width="70" height="40" as="alternateBounds" />
          </mxGeometry>
        </mxCell>
        <mxCell id="O5yxbaJrEStq2CBvZx3k-315" value="days" style="shape=partialRectangle;html=1;whiteSpace=wrap;connectable=0;strokeColor=inherit;overflow=hidden;fillColor=none;top=0;left=0;bottom=0;right=0;pointerEvents=1;" parent="O5yxbaJrEStq2CBvZx3k-305" vertex="1">
          <mxGeometry x="500" width="50" height="40" as="geometry">
            <mxRectangle width="50" height="40" as="alternateBounds" />
          </mxGeometry>
        </mxCell>
        <mxCell id="O5yxbaJrEStq2CBvZx3k-338" value="is_released" style="shape=partialRectangle;html=1;whiteSpace=wrap;connectable=0;strokeColor=inherit;overflow=hidden;fillColor=none;top=0;left=0;bottom=0;right=0;pointerEvents=1;" parent="O5yxbaJrEStq2CBvZx3k-305" vertex="1">
          <mxGeometry x="550" width="80" height="40" as="geometry">
            <mxRectangle width="80" height="40" as="alternateBounds" />
          </mxGeometry>
        </mxCell>
        <mxCell id="O5yxbaJrEStq2CBvZx3k-333" value="" style="endArrow=none;html=1;rounded=0;exitX=0.529;exitY=-0.008;exitDx=0;exitDy=0;exitPerimeter=0;entryX=0.051;entryY=1;entryDx=0;entryDy=0;entryPerimeter=0;" parent="1" source="O5yxbaJrEStq2CBvZx3k-289" target="O5yxbaJrEStq2CBvZx3k-223" edge="1">
          <mxGeometry relative="1" as="geometry">
            <mxPoint x="1200" y="610" as="sourcePoint" />
            <mxPoint x="1360" y="610" as="targetPoint" />
            <Array as="points">
              <mxPoint x="1161" y="610" />
              <mxPoint x="930" y="610" />
              <mxPoint x="930" y="130" />
              <mxPoint x="990" y="130" />
            </Array>
          </mxGeometry>
        </mxCell>
        <mxCell id="O5yxbaJrEStq2CBvZx3k-336" value="" style="endArrow=none;html=1;rounded=0;exitX=0.936;exitY=1.016;exitDx=0;exitDy=0;exitPerimeter=0;entryX=0.71;entryY=-0.001;entryDx=0;entryDy=0;entryPerimeter=0;" parent="1" source="O5yxbaJrEStq2CBvZx3k-223" target="O5yxbaJrEStq2CBvZx3k-289" edge="1">
          <mxGeometry relative="1" as="geometry">
            <mxPoint x="1530" y="220" as="sourcePoint" />
            <mxPoint x="1690" y="220" as="targetPoint" />
            <Array as="points">
              <mxPoint x="1512" y="140" />
              <mxPoint x="1660" y="140" />
              <mxPoint x="1660" y="380" />
              <mxPoint x="1660" y="600" />
              <mxPoint x="1230" y="600" />
            </Array>
          </mxGeometry>
        </mxCell>
        <mxCell id="O5yxbaJrEStq2CBvZx3k-337" value="" style="endArrow=none;html=1;rounded=0;exitX=0.711;exitY=1.001;exitDx=0;exitDy=0;exitPerimeter=0;entryX=0.895;entryY=0.025;entryDx=0;entryDy=0;entryPerimeter=0;" parent="1" source="O5yxbaJrEStq2CBvZx3k-289" target="O5yxbaJrEStq2CBvZx3k-297" edge="1">
          <mxGeometry relative="1" as="geometry">
            <mxPoint x="1290" y="700" as="sourcePoint" />
            <mxPoint x="1450" y="700" as="targetPoint" />
            <Array as="points">
              <mxPoint x="1230" y="700" />
              <mxPoint x="1300" y="700" />
            </Array>
          </mxGeometry>
        </mxCell>
        <mxCell id="O5yxbaJrEStq2CBvZx3k-339" value="" style="endArrow=none;html=1;rounded=0;exitX=0.835;exitY=0.984;exitDx=0;exitDy=0;exitPerimeter=0;entryX=0.009;entryY=-0.022;entryDx=0;entryDy=0;entryPerimeter=0;" parent="1" source="O5yxbaJrEStq2CBvZx3k-280" target="O5yxbaJrEStq2CBvZx3k-305" edge="1">
          <mxGeometry relative="1" as="geometry">
            <mxPoint x="1090" y="490" as="sourcePoint" />
            <mxPoint x="1250" y="490" as="targetPoint" />
            <Array as="points">
              <mxPoint x="1110" y="620" />
              <mxPoint x="920" y="620" />
              <mxPoint x="920" y="780" />
              <mxPoint x="966" y="780" />
            </Array>
          </mxGeometry>
        </mxCell>
        <mxCell id="O5yxbaJrEStq2CBvZx3k-341" value="" style="shape=table;startSize=0;container=1;collapsible=0;childLayout=tableLayout;" parent="1" vertex="1">
          <mxGeometry x="960" y="880" width="300" height="40" as="geometry" />
        </mxCell>
        <mxCell id="O5yxbaJrEStq2CBvZx3k-342" value="" style="shape=tableRow;horizontal=0;startSize=0;swimlaneHead=0;swimlaneBody=0;strokeColor=inherit;top=0;left=0;bottom=0;right=0;collapsible=0;dropTarget=0;fillColor=none;points=[[0,0.5],[1,0.5]];portConstraint=eastwest;" parent="O5yxbaJrEStq2CBvZx3k-341" vertex="1">
          <mxGeometry width="300" height="40" as="geometry" />
        </mxCell>
        <mxCell id="O5yxbaJrEStq2CBvZx3k-343" value="r_comment" style="shape=partialRectangle;html=1;whiteSpace=wrap;connectable=0;strokeColor=inherit;overflow=hidden;fillColor=none;top=0;left=0;bottom=0;right=0;pointerEvents=1;" parent="O5yxbaJrEStq2CBvZx3k-342" vertex="1">
          <mxGeometry width="70" height="40" as="geometry">
            <mxRectangle width="70" height="40" as="alternateBounds" />
          </mxGeometry>
        </mxCell>
        <mxCell id="O5yxbaJrEStq2CBvZx3k-344" value="r_star" style="shape=partialRectangle;html=1;whiteSpace=wrap;connectable=0;strokeColor=inherit;overflow=hidden;fillColor=none;top=0;left=0;bottom=0;right=0;pointerEvents=1;" parent="O5yxbaJrEStq2CBvZx3k-342" vertex="1">
          <mxGeometry x="70" width="50" height="40" as="geometry">
            <mxRectangle width="50" height="40" as="alternateBounds" />
          </mxGeometry>
        </mxCell>
        <mxCell id="O5yxbaJrEStq2CBvZx3k-345" value="r_date" style="shape=partialRectangle;html=1;whiteSpace=wrap;connectable=0;strokeColor=inherit;overflow=hidden;fillColor=none;top=0;left=0;bottom=0;right=0;pointerEvents=1;" parent="O5yxbaJrEStq2CBvZx3k-342" vertex="1">
          <mxGeometry x="120" width="60" height="40" as="geometry">
            <mxRectangle width="60" height="40" as="alternateBounds" />
          </mxGeometry>
        </mxCell>
        <mxCell id="O5yxbaJrEStq2CBvZx3k-346" value="user_id" style="shape=partialRectangle;html=1;whiteSpace=wrap;connectable=0;strokeColor=inherit;overflow=hidden;fillColor=none;top=0;left=0;bottom=0;right=0;pointerEvents=1;" parent="O5yxbaJrEStq2CBvZx3k-342" vertex="1">
          <mxGeometry x="180" width="60" height="40" as="geometry">
            <mxRectangle width="60" height="40" as="alternateBounds" />
          </mxGeometry>
        </mxCell>
        <mxCell id="O5yxbaJrEStq2CBvZx3k-347" value="movie_id" style="shape=partialRectangle;html=1;whiteSpace=wrap;connectable=0;strokeColor=inherit;overflow=hidden;fillColor=none;top=0;left=0;bottom=0;right=0;pointerEvents=1;" parent="O5yxbaJrEStq2CBvZx3k-342" vertex="1">
          <mxGeometry x="240" width="60" height="40" as="geometry">
            <mxRectangle width="60" height="40" as="alternateBounds" />
          </mxGeometry>
        </mxCell>
        <mxCell id="O5yxbaJrEStq2CBvZx3k-349" value="Rates" style="text;html=1;align=center;verticalAlign=middle;resizable=0;points=[];autosize=1;strokeColor=none;fillColor=none;" parent="1" vertex="1">
          <mxGeometry x="965" y="850" width="50" height="30" as="geometry" />
        </mxCell>
        <mxCell id="O5yxbaJrEStq2CBvZx3k-351" value="" style="endArrow=none;html=1;rounded=0;exitX=0.074;exitY=1.003;exitDx=0;exitDy=0;exitPerimeter=0;entryX=0.865;entryY=-0.009;entryDx=0;entryDy=0;entryPerimeter=0;" parent="1" source="O5yxbaJrEStq2CBvZx3k-305" target="O5yxbaJrEStq2CBvZx3k-342" edge="1">
          <mxGeometry relative="1" as="geometry">
            <mxPoint x="1080" y="860" as="sourcePoint" />
            <mxPoint x="1240" y="860" as="targetPoint" />
            <Array as="points">
              <mxPoint x="1007" y="860" />
              <mxPoint x="1220" y="860" />
            </Array>
          </mxGeometry>
        </mxCell>
        <mxCell id="O5yxbaJrEStq2CBvZx3k-352" value="" style="endArrow=none;html=1;rounded=0;entryX=0.665;entryY=1.018;entryDx=0;entryDy=0;entryPerimeter=0;exitX=0.019;exitY=0.996;exitDx=0;exitDy=0;exitPerimeter=0;" parent="1" source="O5yxbaJrEStq2CBvZx3k-223" target="O5yxbaJrEStq2CBvZx3k-342" edge="1">
          <mxGeometry relative="1" as="geometry">
            <mxPoint x="1040" y="870" as="sourcePoint" />
            <mxPoint x="1200" y="870" as="targetPoint" />
            <Array as="points">
              <mxPoint x="970" y="140" />
              <mxPoint x="890" y="140" />
              <mxPoint x="890" y="490" />
              <mxPoint x="890" y="960" />
              <mxPoint x="1160" y="960" />
            </Array>
          </mxGeometry>
        </mxCell>
        <mxCell id="O5yxbaJrEStq2CBvZx3k-354" value="" style="endArrow=none;html=1;rounded=0;entryX=0.812;entryY=-0.003;entryDx=0;entryDy=0;entryPerimeter=0;exitX=0.084;exitY=1.002;exitDx=0;exitDy=0;exitPerimeter=0;" parent="1" source="O5yxbaJrEStq2CBvZx3k-245" target="O5yxbaJrEStq2CBvZx3k-254" edge="1">
          <mxGeometry relative="1" as="geometry">
            <mxPoint x="1010" y="280" as="sourcePoint" />
            <mxPoint x="1200" y="300" as="targetPoint" />
            <Array as="points">
              <mxPoint x="990" y="300" />
              <mxPoint x="1180" y="300" />
            </Array>
          </mxGeometry>
        </mxCell>
        <mxCell id="O5yxbaJrEStq2CBvZx3k-356" value="" style="endArrow=none;html=1;rounded=0;exitX=0.187;exitY=1.01;exitDx=0;exitDy=0;exitPerimeter=0;entryX=0.565;entryY=-0.02;entryDx=0;entryDy=0;entryPerimeter=0;" parent="1" source="O5yxbaJrEStq2CBvZx3k-255" target="O5yxbaJrEStq2CBvZx3k-262" edge="1">
          <mxGeometry relative="1" as="geometry">
            <mxPoint x="1030" y="370" as="sourcePoint" />
            <mxPoint x="1190" y="370" as="targetPoint" />
            <Array as="points">
              <mxPoint x="1010" y="380" />
              <mxPoint x="1101" y="380" />
            </Array>
          </mxGeometry>
        </mxCell>
        <mxCell id="O5yxbaJrEStq2CBvZx3k-362" value="" style="endArrow=none;html=1;rounded=0;exitX=0.069;exitY=1.012;exitDx=0;exitDy=0;exitPerimeter=0;entryX=0.917;entryY=0;entryDx=0;entryDy=0;entryPerimeter=0;" parent="1" source="O5yxbaJrEStq2CBvZx3k-223" target="O5yxbaJrEStq2CBvZx3k-235" edge="1">
          <mxGeometry relative="1" as="geometry">
            <mxPoint x="1020" y="140" as="sourcePoint" />
            <mxPoint x="1180" y="140" as="targetPoint" />
            <Array as="points">
              <mxPoint x="1000" y="140" />
              <mxPoint x="1400" y="140" />
            </Array>
          </mxGeometry>
        </mxCell>
        <mxCell id="O5yxbaJrEStq2CBvZx3k-363" value="" style="endArrow=none;html=1;rounded=0;exitX=0.798;exitY=1;exitDx=0;exitDy=0;exitPerimeter=0;entryX=0.079;entryY=-0.037;entryDx=0;entryDy=0;entryPerimeter=0;" parent="1" source="O5yxbaJrEStq2CBvZx3k-235" target="O5yxbaJrEStq2CBvZx3k-305" edge="1">
          <mxGeometry relative="1" as="geometry">
            <mxPoint x="1400" y="320" as="sourcePoint" />
            <mxPoint x="1560" y="320" as="targetPoint" />
            <Array as="points">
              <mxPoint x="1343" y="220" />
              <mxPoint x="1550" y="220" />
              <mxPoint x="1550" y="780" />
              <mxPoint x="1010" y="780" />
            </Array>
          </mxGeometry>
        </mxCell>
        <mxCell id="O5yxbaJrEStq2CBvZx3k-364" value="" style="endArrow=none;html=1;rounded=0;exitX=0.562;exitY=1;exitDx=0;exitDy=0;exitPerimeter=0;entryX=0.185;entryY=-0.05;entryDx=0;entryDy=0;entryPerimeter=0;" parent="1" source="O5yxbaJrEStq2CBvZx3k-235" target="O5yxbaJrEStq2CBvZx3k-255" edge="1">
          <mxGeometry relative="1" as="geometry">
            <mxPoint x="1250" y="230" as="sourcePoint" />
            <mxPoint x="1410" y="230" as="targetPoint" />
            <Array as="points">
              <mxPoint x="1230" y="220" />
              <mxPoint x="1330" y="220" />
              <mxPoint x="1330" y="310" />
              <mxPoint x="1010" y="310" />
            </Array>
          </mxGeometry>
        </mxCell>
        <mxCell id="O5yxbaJrEStq2CBvZx3k-365" value="" style="endArrow=none;html=1;rounded=0;exitX=0.162;exitY=0.98;exitDx=0;exitDy=0;exitPerimeter=0;entryX=0.688;entryY=0.974;entryDx=0;entryDy=0;entryPerimeter=0;" parent="1" source="O5yxbaJrEStq2CBvZx3k-262" target="O5yxbaJrEStq2CBvZx3k-235" edge="1">
          <mxGeometry relative="1" as="geometry">
            <mxPoint x="1220" y="410" as="sourcePoint" />
            <mxPoint x="1380" y="410" as="targetPoint" />
            <Array as="points">
              <mxPoint x="1000" y="460" />
              <mxPoint x="1340" y="460" />
              <mxPoint x="1340" y="210" />
              <mxPoint x="1290" y="210" />
            </Array>
          </mxGeometry>
        </mxCell>
        <mxCell id="O5yxbaJrEStq2CBvZx3k-375" value="" style="endArrow=none;html=1;rounded=0;exitX=0.731;exitY=-0.029;exitDx=0;exitDy=0;exitPerimeter=0;entryX=0.085;entryY=0.999;entryDx=0;entryDy=0;entryPerimeter=0;" parent="1" source="O5yxbaJrEStq2CBvZx3k-266" target="O5yxbaJrEStq2CBvZx3k-223" edge="1">
          <mxGeometry relative="1" as="geometry">
            <mxPoint x="1380" y="420" as="sourcePoint" />
            <mxPoint x="1540" y="420" as="targetPoint" />
            <Array as="points">
              <mxPoint x="1370" y="450" />
              <mxPoint x="1480" y="450" />
              <mxPoint x="1480" y="130" />
              <mxPoint x="1010" y="130" />
            </Array>
          </mxGeometry>
        </mxCell>
        <mxCell id="O5yxbaJrEStq2CBvZx3k-376" value="" style="endArrow=none;html=1;rounded=0;exitX=0.906;exitY=-0.018;exitDx=0;exitDy=0;exitPerimeter=0;entryX=0.15;entryY=0.987;entryDx=0;entryDy=0;entryPerimeter=0;" parent="1" source="O5yxbaJrEStq2CBvZx3k-266" target="O5yxbaJrEStq2CBvZx3k-245" edge="1">
          <mxGeometry relative="1" as="geometry">
            <mxPoint x="1390" y="360" as="sourcePoint" />
            <mxPoint x="1550" y="360" as="targetPoint" />
            <Array as="points">
              <mxPoint x="1467" y="300" />
              <mxPoint x="1467" y="290" />
              <mxPoint x="1014" y="290" />
            </Array>
          </mxGeometry>
        </mxCell>
        <mxCell id="O5yxbaJrEStq2CBvZx3k-378" value="" style="endArrow=none;dashed=1;html=1;rounded=0;" parent="1" edge="1">
          <mxGeometry width="50" height="50" relative="1" as="geometry">
            <mxPoint x="1500" y="110" as="sourcePoint" />
            <mxPoint x="1530" y="110" as="targetPoint" />
          </mxGeometry>
        </mxCell>
        <mxCell id="O5yxbaJrEStq2CBvZx3k-379" value="" style="endArrow=none;dashed=1;html=1;rounded=0;" parent="1" edge="1">
          <mxGeometry width="50" height="50" relative="1" as="geometry">
            <mxPoint x="1390" y="190" as="sourcePoint" />
            <mxPoint x="1430" y="190" as="targetPoint" />
          </mxGeometry>
        </mxCell>
        <mxCell id="O5yxbaJrEStq2CBvZx3k-380" value="" style="endArrow=none;dashed=1;html=1;rounded=0;" parent="1" edge="1">
          <mxGeometry width="50" height="50" relative="1" as="geometry">
            <mxPoint x="1330" y="190" as="sourcePoint" />
            <mxPoint x="1370" y="190" as="targetPoint" />
          </mxGeometry>
        </mxCell>
        <mxCell id="O5yxbaJrEStq2CBvZx3k-381" value="" style="endArrow=none;dashed=1;html=1;rounded=0;" parent="1" edge="1">
          <mxGeometry width="50" height="50" relative="1" as="geometry">
            <mxPoint x="1270" y="190" as="sourcePoint" />
            <mxPoint x="1310" y="190" as="targetPoint" />
          </mxGeometry>
        </mxCell>
        <mxCell id="O5yxbaJrEStq2CBvZx3k-382" value="" style="endArrow=none;dashed=1;html=1;rounded=0;" parent="1" edge="1">
          <mxGeometry width="50" height="50" relative="1" as="geometry">
            <mxPoint x="1210" y="190" as="sourcePoint" />
            <mxPoint x="1250" y="190" as="targetPoint" />
          </mxGeometry>
        </mxCell>
        <mxCell id="O5yxbaJrEStq2CBvZx3k-383" value="" style="endArrow=none;dashed=1;html=1;rounded=0;" parent="1" edge="1">
          <mxGeometry width="50" height="50" relative="1" as="geometry">
            <mxPoint x="1150" y="190" as="sourcePoint" />
            <mxPoint x="1190" y="190" as="targetPoint" />
          </mxGeometry>
        </mxCell>
        <mxCell id="O5yxbaJrEStq2CBvZx3k-384" value="" style="endArrow=none;html=1;rounded=0;exitX=0.913;exitY=0.995;exitDx=0;exitDy=0;exitPerimeter=0;entryX=0.395;entryY=1.014;entryDx=0;entryDy=0;entryPerimeter=0;" parent="1" source="O5yxbaJrEStq2CBvZx3k-252" target="O5yxbaJrEStq2CBvZx3k-235" edge="1">
          <mxGeometry relative="1" as="geometry">
            <mxPoint x="1040" y="220" as="sourcePoint" />
            <mxPoint x="1200" y="220" as="targetPoint" />
            <Array as="points">
              <mxPoint x="1010" y="220" />
              <mxPoint x="1150" y="220" />
            </Array>
          </mxGeometry>
        </mxCell>
        <mxCell id="O5yxbaJrEStq2CBvZx3k-385" value="" style="endArrow=none;dashed=1;html=1;rounded=0;" parent="1" edge="1">
          <mxGeometry width="50" height="50" relative="1" as="geometry">
            <mxPoint x="1170" y="350.00000000000006" as="sourcePoint" />
            <mxPoint x="1220" y="350.29" as="targetPoint" />
          </mxGeometry>
        </mxCell>
        <mxCell id="O5yxbaJrEStq2CBvZx3k-386" value="" style="endArrow=none;dashed=1;html=1;rounded=0;" parent="1" edge="1">
          <mxGeometry width="50" height="50" relative="1" as="geometry">
            <mxPoint x="1085" y="430" as="sourcePoint" />
            <mxPoint x="1135" y="430" as="targetPoint" />
          </mxGeometry>
        </mxCell>
        <mxCell id="O5yxbaJrEStq2CBvZx3k-387" value="" style="endArrow=none;dashed=1;html=1;rounded=0;" parent="1" edge="1">
          <mxGeometry width="50" height="50" relative="1" as="geometry">
            <mxPoint x="1350" y="510" as="sourcePoint" />
            <mxPoint x="1400" y="510" as="targetPoint" />
          </mxGeometry>
        </mxCell>
        <mxCell id="O5yxbaJrEStq2CBvZx3k-388" value="" style="endArrow=none;dashed=1;html=1;rounded=0;" parent="1" edge="1">
          <mxGeometry width="50" height="50" relative="1" as="geometry">
            <mxPoint x="1440" y="510" as="sourcePoint" />
            <mxPoint x="1500" y="510.24" as="targetPoint" />
          </mxGeometry>
        </mxCell>
        <mxCell id="O5yxbaJrEStq2CBvZx3k-389" value="" style="endArrow=none;dashed=1;html=1;rounded=0;" parent="1" edge="1">
          <mxGeometry width="50" height="50" relative="1" as="geometry">
            <mxPoint x="1085" y="590" as="sourcePoint" />
            <mxPoint x="1135" y="590" as="targetPoint" />
          </mxGeometry>
        </mxCell>
        <mxCell id="O5yxbaJrEStq2CBvZx3k-390" value="" style="endArrow=none;dashed=1;html=1;rounded=0;" parent="1" edge="1">
          <mxGeometry width="50" height="50" relative="1" as="geometry">
            <mxPoint x="1280" y="750" as="sourcePoint" />
            <mxPoint x="1330" y="750" as="targetPoint" />
          </mxGeometry>
        </mxCell>
        <mxCell id="O5yxbaJrEStq2CBvZx3k-391" value="" style="endArrow=none;dashed=1;html=1;rounded=0;" parent="1" edge="1">
          <mxGeometry width="50" height="50" relative="1" as="geometry">
            <mxPoint x="1210" y="910" as="sourcePoint" />
            <mxPoint x="1250" y="910" as="targetPoint" />
          </mxGeometry>
        </mxCell>
        <mxCell id="O5yxbaJrEStq2CBvZx3k-392" value="" style="endArrow=none;dashed=1;html=1;rounded=0;" parent="1" edge="1">
          <mxGeometry width="50" height="50" relative="1" as="geometry">
            <mxPoint x="1150" y="910" as="sourcePoint" />
            <mxPoint x="1190" y="910" as="targetPoint" />
          </mxGeometry>
        </mxCell>
        <mxCell id="koNiK_NTz06NFWScvjMT-2" value="" style="endArrow=none;dashed=1;html=1;rounded=0;" edge="1" parent="1">
          <mxGeometry width="50" height="50" relative="1" as="geometry">
            <mxPoint x="1150" y="430" as="sourcePoint" />
            <mxPoint x="1200" y="430" as="targetPoint" />
          </mxGeometry>
        </mxCell>
        <mxCell id="koNiK_NTz06NFWScvjMT-3" value="" style="endArrow=none;html=1;rounded=0;entryX=0.795;entryY=-0.08;entryDx=0;entryDy=0;entryPerimeter=0;exitX=0.056;exitY=0.992;exitDx=0;exitDy=0;exitPerimeter=0;" edge="1" parent="1" source="O5yxbaJrEStq2CBvZx3k-245" target="O5yxbaJrEStq2CBvZx3k-262">
          <mxGeometry relative="1" as="geometry">
            <mxPoint x="1130" y="370" as="sourcePoint" />
            <mxPoint x="1290" y="370" as="targetPoint" />
            <Array as="points">
              <mxPoint x="980" y="290" />
              <mxPoint x="950" y="290" />
              <mxPoint x="950" y="370" />
              <mxPoint x="1160" y="370" />
            </Array>
          </mxGeometry>
        </mxCell>
      </root>
    </mxGraphModel>
  </diagram>
</mxfile>
